<svg width="112" height="32" viewBox="0 0 112 32" fill="none" xmlns="http://www.w3.org/2000/svg">
<path d="M6.22113 31.824C5.22913 31.824 4.28513 31.536 3.38913 30.96C2.49313 30.416 1.82113 29.568 1.37313 28.416C1.21313 28 1.10113 27.552 1.03712 27.072C1.00513 26.592 0.989125 26.128 0.989125 25.68V25.056C0.989125 24.832 1.00513 24.624 1.03712 24.432C1.10113 24.24 1.22913 24.144 1.42113 24.144C1.48513 24.144 1.51713 24.176 1.51713 24.24C1.51713 24.432 1.50113 24.624 1.46913 24.816C1.46913 25.008 1.46913 25.2 1.46913 25.392C1.46913 26.896 1.83713 28.048 2.57313 28.848C3.34113 29.616 4.28513 30 5.40513 30C6.52513 30 7.61313 29.68 8.66913 29.04C9.72513 28.368 10.7011 27.536 11.5971 26.544C12.1091 26 12.6851 25.184 13.3251 24.096C13.9971 22.976 14.6851 21.728 15.3891 20.352C16.1251 18.944 16.8611 17.504 17.5971 16.032C18.3331 14.528 19.0371 13.088 19.7091 11.712C20.3811 10.304 20.9891 9.072 21.5331 8.016C22.0451 7.024 22.7331 6.24 23.5971 5.664C24.4611 5.088 25.1971 4.688 25.8051 4.464C25.5811 4.464 25.1011 4.48 24.3651 4.512C23.6611 4.544 22.9091 4.576 22.1091 4.608C21.3091 4.64 20.6691 4.672 20.1891 4.704C18.9731 4.768 17.7411 4.912 16.4931 5.136C15.2451 5.36 14.1411 5.664 13.1811 6.048C12.2211 6.432 11.5331 6.928 11.1171 7.536C10.8291 7.952 10.6851 8.432 10.6851 8.976C10.6851 10.064 11.1651 10.848 12.1251 11.328C12.1891 11.392 12.2211 11.424 12.2211 11.424C12.2211 11.52 12.1411 11.616 11.9811 11.712C11.8211 11.776 11.6611 11.792 11.5011 11.76C11.2451 11.6 10.9251 11.344 10.5411 10.992C10.1891 10.608 9.85313 10.208 9.53313 9.792C9.24513 9.376 9.05313 9.024 8.95713 8.736C8.79713 8.256 8.71713 7.872 8.71713 7.584C8.71713 6.816 9.00513 6.192 9.58113 5.712C10.1571 5.2 10.9091 4.816 11.8371 4.56C12.7651 4.272 13.7571 4.08 14.8131 3.984C15.8691 3.856 16.8931 3.776 17.8851 3.744C18.8771 3.712 19.7251 3.696 20.4291 3.696C22.0611 3.696 23.5171 3.696 24.7971 3.696C26.1091 3.664 27.3091 3.648 28.3971 3.648C29.5171 3.648 30.5891 3.664 31.6131 3.696C32.6691 3.728 33.7731 3.776 34.9251 3.84C35.7571 3.872 36.3171 4.032 36.6051 4.32C36.9251 4.608 37.0851 4.96 37.0851 5.376C37.0851 5.92 36.9091 6.512 36.5571 7.152C36.2051 7.792 35.8851 8.384 35.5971 8.928C35.4691 9.184 35.2611 9.376 34.9731 9.504C34.6851 9.6 34.5731 9.504 34.6371 9.216C34.7011 8.928 34.7651 8.624 34.8291 8.304C34.8931 7.952 34.9251 7.616 34.9251 7.296C34.9251 6.72 34.8131 6.208 34.5891 5.76C34.3651 5.28 33.9811 4.944 33.4371 4.752C33.1171 4.624 32.7331 4.544 32.2851 4.512C31.8371 4.448 31.3571 4.416 30.8451 4.416C29.8851 4.416 28.9251 4.512 27.9651 4.704C27.0051 4.896 26.2531 5.2 25.7091 5.616C25.0371 6.128 24.3491 6.96 23.6451 8.112C22.9731 9.264 22.3331 10.496 21.7251 11.808C21.1171 13.12 20.5731 14.272 20.0931 15.264C20.0611 15.328 20.0451 15.424 20.0451 15.552C20.0451 15.712 20.1891 15.792 20.4771 15.792C20.9251 15.792 21.5491 15.792 22.3491 15.792C23.1811 15.792 24.0451 15.808 24.9411 15.84C25.8371 15.84 26.6051 15.84 27.2451 15.84C27.9491 15.84 28.5091 15.888 28.9251 15.984C29.3411 16.048 29.5491 16.256 29.5491 16.608C29.5491 16.736 29.4691 16.992 29.3091 17.376C29.0851 17.888 28.8291 18.336 28.5411 18.72C28.2851 19.072 28.0771 19.44 27.9171 19.824C27.8851 19.952 27.7411 20.064 27.4851 20.16C27.2291 20.256 27.1331 20.24 27.1971 20.112C27.3251 19.824 27.4531 19.472 27.5811 19.056C27.7411 18.608 27.8211 18.224 27.8211 17.904C27.8211 17.392 27.5971 17.136 27.1491 17.136H19.6611C19.3731 17.136 19.1491 17.264 18.9891 17.52C18.0611 19.376 17.0531 21.36 15.9651 23.472C14.9091 25.584 13.6771 27.392 12.2691 28.896C11.4691 29.76 10.5411 30.464 9.48513 31.008C8.42913 31.552 7.34113 31.824 6.22113 31.824ZM32.1906 30.096C31.2306 30.096 30.5746 29.872 30.2226 29.424C29.8706 28.944 29.6946 28.368 29.6946 27.696C29.6946 26.8 29.8866 25.84 30.2706 24.816C30.6866 23.792 31.0226 22.992 31.2786 22.416C30.8626 22.864 30.4626 23.296 30.0786 23.712C29.6946 24.128 29.4226 24.432 29.2626 24.624C29.1666 24.752 29.0866 24.816 29.0226 24.816C28.9586 24.816 28.9266 24.736 28.9266 24.576C28.9266 24.32 29.0066 24.08 29.1666 23.856C29.6146 23.28 30.1266 22.672 30.7026 22.032C31.2786 21.392 31.8386 20.72 32.3826 20.016C33.0226 18.832 33.7266 17.456 34.4946 15.888C35.2946 14.288 36.1106 12.656 36.9426 10.992C37.8066 9.296 38.6386 7.744 39.4386 6.336C40.2706 4.896 41.0066 3.744 41.6466 2.88C42.1906 2.656 42.7026 2.368 43.1826 2.016C43.6946 1.664 44.1906 1.344 44.6706 1.056C45.1826 0.735998 45.7106 0.575998 46.2546 0.575998C46.6066 0.575998 46.8626 0.671998 47.0226 0.863997C47.2146 1.056 47.3426 1.28 47.4066 1.536C47.4386 1.632 47.4546 1.808 47.4546 2.064C47.4546 2.8 47.1986 3.696 46.6866 4.752C46.2066 5.808 45.6306 6.848 44.9586 7.872C44.3186 8.864 43.7586 9.68 43.2786 10.32C41.9986 12.112 40.6866 13.744 39.3426 15.216C37.9986 16.656 36.7826 17.872 35.6946 18.864C34.6386 19.824 33.8706 20.528 33.3906 20.976C33.1666 21.392 32.8946 21.952 32.5746 22.656C32.2866 23.328 32.0306 24.048 31.8066 24.816C31.5826 25.552 31.4706 26.24 31.4706 26.88C31.4706 27.424 31.5986 27.888 31.8546 28.272C32.1106 28.624 32.5426 28.8 33.1506 28.8C33.2466 28.8 33.3426 28.8 33.4386 28.8C33.5346 28.8 33.6466 28.784 33.7746 28.752C34.3186 28.656 34.9106 28.352 35.5506 27.84C36.1906 27.328 36.8306 26.736 37.4706 26.064C38.1106 25.392 38.6866 24.752 39.1986 24.144C39.4226 23.888 39.6306 23.648 39.8226 23.424C40.0146 23.168 40.1426 22.992 40.2066 22.896C40.4306 23.12 40.4146 23.408 40.1586 23.76C39.9346 24.08 39.7426 24.352 39.5826 24.576C39.3586 24.864 39.0386 25.264 38.6226 25.776C38.2066 26.256 37.7266 26.784 37.1826 27.36C36.5746 27.968 35.8226 28.576 34.9266 29.184C34.0306 29.792 33.1186 30.096 32.1906 30.096ZM34.2066 19.056C35.1986 18.224 36.4466 17.04 37.9506 15.504C39.4866 13.936 40.9906 12.048 42.4626 9.84C42.6226 9.584 42.8786 9.152 43.2306 8.544C43.6146 7.936 43.9986 7.248 44.3826 6.48C44.7986 5.68 45.1506 4.912 45.4386 4.176C45.7266 3.408 45.8706 2.752 45.8706 2.208C45.8706 1.696 45.7266 1.44 45.4386 1.44C45.0866 1.44 44.6226 1.744 44.0466 2.352C43.3746 3.056 42.6066 4.096 41.7426 5.472C40.9106 6.816 40.0306 8.32 39.1026 9.984C38.1746 11.648 37.2786 13.28 36.4146 14.88C35.5826 16.48 34.8466 17.872 34.2066 19.056ZM40.0563 30.096C39.5443 30.096 39.0803 30 38.6643 29.808C38.2803 29.584 38.0883 29.12 38.0883 28.416C38.0883 27.296 38.3763 26.176 38.9523 25.056C39.5283 23.904 40.1203 22.896 40.7283 22.032C41.2723 21.296 41.8803 20.608 42.5523 19.968C43.2563 19.296 44.0083 18.72 44.8083 18.24C45.3203 17.92 46.0083 17.584 46.8723 17.232C47.7683 16.848 48.5203 16.656 49.1283 16.656C49.6403 16.656 50.0883 16.8 50.4723 17.088C50.8563 17.344 51.0483 17.824 51.0483 18.528C51.0483 19.616 50.7603 20.736 50.1843 21.888C49.6403 23.008 49.0643 24 48.4563 24.864C48.1683 25.248 47.8803 25.616 47.5923 25.968C47.3043 26.288 46.9843 26.624 46.6323 26.976C47.8163 26.976 48.9043 26.64 49.8963 25.968C50.8883 25.264 51.7523 24.416 52.4883 23.424L52.5843 23.328C52.6803 23.328 52.7283 23.424 52.7283 23.616C52.7283 23.84 52.6643 24.048 52.5363 24.24C51.8963 25.136 51.0963 25.936 50.1363 26.64C49.1763 27.312 48.0883 27.648 46.8723 27.648C46.7443 27.648 46.6163 27.648 46.4883 27.648C46.3603 27.648 46.2323 27.632 46.1043 27.6C44.3123 29.264 42.2963 30.096 40.0563 30.096ZM41.3043 29.28C41.7523 29.28 42.2323 29.12 42.7443 28.8C43.2883 28.48 43.7043 28.176 43.9922 27.888C44.5363 27.344 45.0323 26.768 45.4803 26.16C45.9283 25.52 46.3443 24.88 46.7283 24.24C47.1763 23.472 47.6243 22.56 48.0723 21.504C48.5203 20.448 48.7443 19.456 48.7443 18.528C48.7443 17.792 48.4883 17.424 47.9763 17.424C47.5603 17.424 47.0483 17.6 46.4403 17.952C45.8643 18.304 45.4323 18.624 45.1443 18.912C44.0563 20.032 43.1443 21.248 42.4083 22.56C41.9923 23.296 41.5443 24.16 41.0643 25.152C40.5843 26.144 40.3443 27.056 40.3443 27.888C40.3443 28.016 40.3443 28.144 40.3443 28.272C40.3763 28.368 40.4083 28.48 40.4403 28.608C40.5683 29.056 40.8563 29.28 41.3043 29.28ZM55.9274 30.288C55.4794 30.288 55.0954 30.128 54.7754 29.808C54.4554 29.488 54.2954 28.928 54.2954 28.128C54.2954 27.424 54.3434 26.592 54.4394 25.632C54.5674 24.672 54.7434 23.696 54.9674 22.704C55.1914 21.68 55.4474 20.784 55.7354 20.016C55.1914 20.816 54.5834 21.648 53.9114 22.512C53.2394 23.344 52.6794 24.048 52.2314 24.624C52.1354 24.752 52.0554 24.816 51.9914 24.816C51.9274 24.816 51.8954 24.736 51.8954 24.576C51.8954 24.32 51.9754 24.08 52.1354 23.856C52.8074 22.928 53.5594 21.872 54.3914 20.688C55.2554 19.504 55.9914 18.432 56.5994 17.472C56.9514 17.408 57.3674 17.312 57.8474 17.184C58.3594 17.056 58.7274 16.88 58.9514 16.656C59.1114 16.56 59.2074 16.512 59.2394 16.512C59.3354 16.512 59.3834 16.576 59.3834 16.704C59.3834 16.8 59.3354 16.912 59.2394 17.04C58.9514 17.456 58.6314 18.112 58.2794 19.008C57.9274 19.872 57.5914 20.848 57.2714 21.936C56.9514 22.992 56.6794 24.032 56.4554 25.056C56.2634 26.08 56.1674 26.928 56.1674 27.6C56.1674 28.112 56.2474 28.464 56.4074 28.656C56.5994 28.848 56.8074 28.944 57.0314 28.944C57.4794 28.944 57.9434 28.736 58.4234 28.32C58.9354 27.904 59.4314 27.392 59.9114 26.784C60.4234 26.176 60.8714 25.584 61.2554 25.008C61.6394 24.432 61.9274 23.984 62.1194 23.664C62.7594 22.64 63.3674 21.536 63.9434 20.352C64.5514 19.136 65.0634 18.176 65.4794 17.472C65.8314 17.408 66.2474 17.312 66.7274 17.184C67.2394 17.056 67.6234 16.88 67.8794 16.656C67.9754 16.56 68.0554 16.512 68.1194 16.512C68.2154 16.512 68.2634 16.576 68.2634 16.704C68.2954 16.8 68.2634 16.912 68.1674 17.04C67.8794 17.456 67.5754 18.096 67.2554 18.96C66.9354 19.824 66.6154 20.784 66.2954 21.84C66.0074 22.864 65.7674 23.888 65.5754 24.912C65.3834 25.904 65.2874 26.752 65.2874 27.456C65.2874 28.416 65.6394 28.896 66.3434 28.896C66.8234 28.896 67.3514 28.72 67.9274 28.368C68.5354 28.016 69.0314 27.648 69.4154 27.264C70.5034 26.144 71.4154 25.04 72.1514 23.952C72.8874 22.864 73.5114 21.616 74.0234 20.208C74.2154 19.728 74.3434 19.312 74.4074 18.96C74.4714 18.576 74.5034 18.224 74.5034 17.904C74.5034 17.456 74.4234 17.104 74.2634 16.848C74.1354 16.56 73.9914 16.4 73.8314 16.368C73.6714 16.304 73.5914 16.224 73.5914 16.128C73.5914 16.064 73.6714 16 73.8314 15.936C73.9914 15.84 74.1674 15.808 74.3594 15.84C74.8714 15.968 75.3034 16.208 75.6554 16.56C76.0394 16.88 76.2314 17.36 76.2314 18C76.2314 18.512 76.1194 19.056 75.8954 19.632C75.4474 20.816 74.7914 22.048 73.9274 23.328C73.0954 24.576 72.1514 25.744 71.0954 26.832C70.0394 27.92 68.9354 28.8 67.7834 29.472C67.3674 29.696 66.9354 29.888 66.4874 30.048C66.0394 30.208 65.6074 30.288 65.1914 30.288C64.6794 30.288 64.2314 30.128 63.8474 29.808C63.4954 29.488 63.3194 28.928 63.3194 28.128C63.3194 27.296 63.3994 26.304 63.5594 25.152C63.7514 24 63.9914 22.88 64.2794 21.792C64.0554 22.144 63.8314 22.528 63.6074 22.944C63.4154 23.328 63.1914 23.728 62.9354 24.144C62.1354 25.296 61.3034 26.384 60.4394 27.408C59.6074 28.432 58.8874 29.12 58.2794 29.472C57.8954 29.696 57.4954 29.888 57.0794 30.048C56.6634 30.208 56.2794 30.288 55.9274 30.288ZM78.7274 30.384C77.4154 30.384 76.5034 30.128 75.9914 29.616C75.4794 29.104 75.2234 28.48 75.2234 27.744C75.2234 26.816 75.4634 25.824 75.9434 24.768C76.4554 23.712 76.9354 22.816 77.3834 22.08C77.8954 21.312 78.5834 20.512 79.4474 19.68C80.3114 18.848 81.2554 18.144 82.2794 17.568C83.3034 16.992 84.2954 16.704 85.2554 16.704C86.0874 16.704 86.6634 16.912 86.9834 17.328C87.3034 17.712 87.4634 18.176 87.4634 18.72C87.4634 19.712 87.1594 20.528 86.5514 21.168C85.9754 21.808 85.2554 22.336 84.3914 22.752C83.5274 23.136 82.6954 23.456 81.8954 23.712C81.4154 23.84 80.8554 23.968 80.2154 24.096C79.5754 24.224 78.9674 24.288 78.3914 24.288C78.1674 24.864 77.9914 25.424 77.8634 25.968C77.7354 26.512 77.6714 27.008 77.6714 27.456C77.6714 28 77.7994 28.448 78.0554 28.8C78.3434 29.152 78.8074 29.328 79.4474 29.328C79.7034 29.328 80.0074 29.296 80.3594 29.232C80.7114 29.168 81.0954 29.072 81.5114 28.944C82.4714 28.624 83.4154 28.112 84.3434 27.408C85.2714 26.704 86.1194 25.952 86.8874 25.152C87.6874 24.32 88.2954 23.632 88.7114 23.088C88.8074 23.184 88.8554 23.296 88.8554 23.424C88.8554 23.584 88.7434 23.84 88.5194 24.192C87.8794 25.088 87.0474 26.016 86.0234 26.976C84.9994 27.936 83.8634 28.752 82.6154 29.424C81.3674 30.064 80.0714 30.384 78.7274 30.384ZM78.7754 23.328C79.1914 23.36 79.6554 23.36 80.1674 23.328C80.7114 23.264 81.2394 23.152 81.7514 22.992C83.0634 22.608 84.0074 22 84.5834 21.168C85.1914 20.304 85.4954 19.536 85.4954 18.864C85.4954 18.48 85.4154 18.16 85.2554 17.904C85.0954 17.648 84.8394 17.52 84.4874 17.52C83.5594 17.52 82.7274 17.872 81.9914 18.576C81.2554 19.248 80.6154 20.032 80.0714 20.928C79.5274 21.824 79.0954 22.624 78.7754 23.328ZM88.2325 30.672C88.1045 30.672 88.1045 30.544 88.2325 30.288C88.3925 30 88.5365 29.68 88.6645 29.328C88.8245 28.976 88.9845 28.592 89.1445 28.176C89.4645 27.408 89.8165 26.544 90.2005 25.584C90.5845 24.624 90.9525 23.696 91.3045 22.8C91.6565 21.872 91.9605 21.088 92.2165 20.448C92.5045 19.776 92.6965 19.344 92.7925 19.152C92.3445 19.632 91.8005 20.24 91.1605 20.976C90.5525 21.68 89.9765 22.368 89.4325 23.04C88.8885 23.712 88.4725 24.24 88.1845 24.624C88.0885 24.752 88.0085 24.816 87.9445 24.816C87.8805 24.816 87.8485 24.736 87.8485 24.576C87.8485 24.32 87.9285 24.08 88.0885 23.856C88.6965 23.088 89.3685 22.224 90.1045 21.264C90.8725 20.304 91.5605 19.424 92.1685 18.624C92.7765 17.792 93.1605 17.248 93.3205 16.992C93.6725 16.928 94.1845 16.832 94.8565 16.704C95.5605 16.576 96.0405 16.4 96.2965 16.176C96.3925 16.08 96.4885 16.032 96.5845 16.032C96.6485 16.032 96.6805 16.096 96.6805 16.224C96.7125 16.32 96.6805 16.432 96.5845 16.56C96.3925 16.752 96.1045 17.168 95.7205 17.808C95.3685 18.448 94.9685 19.184 94.5205 20.016C94.0725 20.848 93.6405 21.648 93.2245 22.416C93.5445 21.936 93.9605 21.376 94.4725 20.736C95.0165 20.064 95.6085 19.424 96.2485 18.816C96.8885 18.176 97.5285 17.648 98.1685 17.232C98.8405 16.816 99.4645 16.608 100.041 16.608C100.457 16.608 100.809 16.704 101.097 16.896C101.385 17.056 101.609 17.36 101.769 17.808C101.865 18.032 101.913 18.288 101.913 18.576C101.913 19.12 101.769 19.648 101.481 20.16C101.225 20.64 101.033 21.008 100.905 21.264C100.873 21.36 100.761 21.456 100.569 21.552C100.377 21.616 100.297 21.584 100.329 21.456C100.361 21.296 100.377 21.136 100.377 20.976C100.409 20.816 100.424 20.64 100.424 20.448C100.424 19.904 100.312 19.408 100.089 18.96C99.8965 18.512 99.5285 18.288 98.9845 18.288C98.4725 18.288 97.8485 18.608 97.1125 19.248C96.3765 19.888 95.6405 20.624 94.9045 21.456C93.9765 22.544 93.2405 23.584 92.6965 24.576C92.1525 25.536 91.7045 26.48 91.3525 27.408C91.1605 27.92 90.9685 28.432 90.7765 28.944C90.5845 29.424 90.4405 29.808 90.3445 30.096C89.9285 30.128 89.5125 30.224 89.0965 30.384C88.6805 30.576 88.3925 30.672 88.2325 30.672ZM103.903 30.768C103.327 30.768 102.719 30.688 102.079 30.528C101.439 30.368 100.863 30.112 100.351 29.76C99.8706 29.376 99.5506 28.864 99.3906 28.224C99.3586 28.128 99.3426 27.984 99.3426 27.792C99.3426 27.344 99.4386 26.848 99.6306 26.304C99.8546 25.76 100.127 25.376 100.447 25.152C100.575 25.088 100.671 25.088 100.735 25.152C100.831 25.216 100.847 25.28 100.783 25.344C100.751 25.44 100.703 25.568 100.639 25.728C100.575 25.856 100.527 26 100.495 26.16C100.399 26.992 100.575 27.728 101.023 28.368C101.215 28.624 101.439 28.864 101.695 29.088C101.983 29.312 102.255 29.504 102.511 29.664C102.735 29.792 103.007 29.888 103.327 29.952C103.647 29.984 103.967 30 104.287 30C104.799 30 105.295 29.936 105.775 29.808C106.255 29.68 106.607 29.472 106.831 29.184C107.247 28.672 107.455 28.096 107.455 27.456C107.455 26.976 107.327 26.464 107.071 25.92C106.815 25.376 106.415 24.8 105.871 24.192C105.519 23.808 105.183 23.392 104.863 22.944C104.543 22.496 104.335 22.016 104.239 21.504C104.207 21.408 104.175 21.312 104.143 21.216C104.143 21.12 104.143 21.024 104.143 20.928C103.727 21.536 103.295 22.112 102.847 22.656C102.431 23.168 102.063 23.616 101.743 24C101.615 24.192 101.503 24.288 101.407 24.288C101.343 24.288 101.311 24.224 101.311 24.096C101.311 23.808 101.439 23.504 101.695 23.184C101.951 22.896 102.239 22.544 102.559 22.128C102.879 21.68 103.135 21.328 103.327 21.072C103.871 20.272 104.271 19.648 104.527 19.2C104.815 18.72 105.119 18.288 105.439 17.904C105.791 17.488 106.223 17.152 106.735 16.896C107.279 16.64 107.839 16.512 108.415 16.512C109.087 16.512 109.695 16.624 110.239 16.848C110.815 17.04 111.119 17.552 111.151 18.384C111.151 18.768 111.071 19.168 110.911 19.584C110.783 19.968 110.639 20.336 110.479 20.688C110.383 20.88 110.239 21.024 110.047 21.12C109.887 21.184 109.807 21.152 109.807 21.024C109.807 20.896 109.823 20.752 109.855 20.592C109.887 20.432 109.903 20.288 109.903 20.16C109.903 19.616 109.807 19.136 109.615 18.72C109.455 18.272 109.215 17.952 108.895 17.76C108.575 17.536 108.239 17.424 107.887 17.424C107.375 17.424 106.879 17.632 106.399 18.048C105.919 18.432 105.679 18.944 105.679 19.584C105.679 19.648 105.679 19.728 105.679 19.824C105.679 19.92 105.695 20 105.727 20.064C105.855 20.576 106.239 21.152 106.879 21.792C107.519 22.432 108.015 22.992 108.367 23.472C108.975 24.304 109.279 25.152 109.279 26.016C109.279 26.88 109.023 27.68 108.511 28.416C108.031 29.12 107.375 29.68 106.543 30.096C105.743 30.544 104.863 30.768 103.903 30.768Z" fill="white"/>
</svg>
